<?xml version="1.0" standalone="no"?>
<!DOCTYPE svg PUBLIC "-//W3C//DTD SVG 20010904//EN"
 "http://www.w3.org/TR/2001/REC-SVG-20010904/DTD/svg10.dtd">
<svg version="1.0" xmlns="http://www.w3.org/2000/svg"
 width="1356.000000pt" height="1355.000000pt" viewBox="0 0 1356.000000 1355.000000"
 preserveAspectRatio="xMidYMid meet">
<metadata>
Created by potrace 1.15, written by Peter Selinger 2001-2017
</metadata>
<g transform="translate(0.000000,1355.000000) scale(0.100000,-0.100000)"
fill="#000000" stroke="none">
<path d="M5204 10839 c-29 -30 -29 -30 -109 -24 -68 6 -89 4 -138 -15 -65 -24
-144 -96 -177 -160 -25 -49 -25 -58 2 -87 20 -22 21 -27 10 -87 -23 -124 -12
-197 43 -276 22 -32 26 -46 20 -72 -3 -18 -8 -53 -10 -78 -2 -25 -5 -54 -7
-65 -2 -15 3 -21 21 -23 22 -4 23 -6 15 -50 -5 -26 -10 -186 -11 -357 -1 -170
-2 -325 -2 -343 -1 -18 6 -49 14 -69 8 -19 15 -57 15 -82 0 -38 -5 -52 -26
-72 -14 -13 -81 -91 -149 -174 -67 -82 -147 -172 -176 -199 -118 -109 -189
-215 -189 -284 0 -71 54 -129 179 -192 43 -21 81 -46 85 -55 10 -27 7 -77 -9
-129 -8 -27 -15 -64 -15 -83 0 -34 29 -103 57 -135 13 -14 12 -23 -3 -72 l-18
-56 27 -65 c36 -88 43 -178 23 -285 -14 -70 -26 -102 -72 -178 -63 -103 -73
-146 -55 -234 14 -64 47 -102 126 -141 60 -29 138 -43 343 -57 214 -15 303
-44 396 -127 81 -72 106 -158 86 -288 -24 -150 -23 -195 3 -295 30 -115 40
-181 30 -196 -4 -6 -37 -26 -73 -44 -160 -80 -247 -149 -330 -260 -136 -184
-350 -677 -445 -1025 -39 -146 -146 -704 -199 -1045 -63 -404 -69 -451 -60
-460 14 -13 626 -61 640 -49 6 5 15 32 18 60 14 108 106 591 140 734 19 83 53
231 76 330 44 191 65 264 153 545 157 496 295 817 396 923 84 89 214 189 378
293 58 36 62 41 63 77 0 69 53 142 131 182 16 9 33 24 39 35 12 23 -16 349
-35 396 -23 55 -77 73 -317 100 -117 13 -220 24 -229 24 -8 0 -45 24 -81 54
-103 86 -116 143 -66 290 30 86 22 203 -21 312 -30 77 -31 84 -19 128 11 43
11 50 -9 84 -69 117 -68 114 -51 194 9 40 19 90 23 111 7 41 8 40 -98 129 -58
50 -97 115 -97 164 1 53 35 107 136 214 166 175 198 214 233 279 25 48 32 70
27 94 -3 18 -10 66 -15 107 -9 69 -20 96 -120 285 -82 156 -115 231 -130 290
-74 304 -42 556 104 825 96 178 171 263 320 367 57 40 105 55 105 33 0 -6 -43
-51 -95 -102 -121 -116 -189 -205 -264 -345 -67 -125 -101 -232 -127 -398 -16
-103 -16 -114 -1 -175 10 -36 24 -99 32 -141 9 -51 27 -98 54 -146 23 -38 46
-85 52 -103 19 -52 26 -15 19 90 -14 189 24 480 63 488 27 6 28 -16 5 -90 -21
-67 -23 -89 -21 -266 1 -105 9 -245 18 -309 8 -64 15 -121 15 -125 0 -4 4 -8
8 -8 5 0 14 46 21 103 13 110 24 178 47 272 7 33 25 111 39 173 29 126 64 229
95 272 11 15 20 31 20 34 0 13 81 86 95 86 36 0 25 -32 -34 -96 -34 -37 -61
-71 -61 -75 0 -5 -12 -34 -26 -64 -64 -142 -142 -648 -130 -850 6 -98 4 -116
-16 -174 -26 -72 -124 -198 -284 -362 -109 -111 -130 -150 -114 -210 11 -41
70 -107 154 -173 47 -36 52 -60 32 -147 -28 -126 -19 -181 44 -252 l33 -38
-23 -42 -22 -42 31 -92 c19 -57 34 -122 38 -171 5 -69 2 -89 -21 -156 -41
-118 -33 -173 34 -229 43 -37 114 -54 270 -67 209 -16 317 -43 368 -91 28 -25
35 -59 62 -282 25 -214 27 -203 -55 -255 -22 -13 -55 -40 -72 -58 -30 -31 -33
-39 -33 -98 0 -58 -2 -65 -22 -71 -13 -4 -34 -14 -48 -23 -14 -9 -34 -16 -45
-17 -27 -1 -170 -113 -293 -230 -91 -87 -103 -103 -155 -207 -175 -352 -390
-1067 -531 -1768 -55 -273 -107 -548 -112 -597 -6 -49 -5 -52 17 -57 26 -6
243 -26 276 -26 11 0 71 33 134 74 63 40 151 98 197 127 45 29 82 56 82 59 0
4 14 7 30 7 17 0 66 18 109 41 43 22 125 55 182 73 57 17 110 36 118 42 7 6
35 44 62 84 27 40 60 79 72 87 12 8 58 24 102 36 82 22 146 48 270 110 l70 35
6 59 c8 69 20 83 81 94 48 9 95 41 158 106 39 41 41 26 -24 172 -20 44 -43
112 -52 150 -8 38 -29 110 -46 159 -102 302 -113 369 -135 868 -14 324 -15
405 -4 489 10 84 10 120 -3 226 -38 316 -47 658 -21 767 7 33 24 82 36 109 32
73 22 153 -50 391 -12 39 -40 142 -62 230 -39 151 -41 166 -35 260 3 55 14
141 25 190 11 50 25 116 32 147 l13 56 -83 173 c-83 174 -122 281 -224 619
-71 234 -99 352 -87 364 26 26 42 -10 106 -239 21 -77 62 -208 83 -270 6 -16
27 -77 47 -135 20 -58 52 -150 71 -206 18 -55 49 -127 68 -159 19 -31 35 -61
35 -65 0 -4 7 -13 15 -20 12 -10 17 -5 29 24 8 19 22 63 31 98 15 61 54 124
82 135 8 3 22 -1 30 -10 14 -14 14 -19 0 -59 -45 -125 -90 -235 -137 -336 -47
-101 -53 -122 -60 -211 -7 -70 -5 -125 5 -192 21 -150 46 -283 55 -294 4 -5
10 -30 13 -55 3 -25 15 -76 26 -115 12 -38 31 -107 42 -153 l22 -83 -30 -77
c-51 -128 -54 -145 -55 -279 -2 -187 26 -603 41 -603 7 0 37 109 69 250 27
118 41 163 55 178 37 36 28 -73 -19 -228 -7 -25 -20 -81 -28 -125 -9 -44 -22
-101 -30 -126 -18 -57 -33 -190 -42 -364 -6 -132 -1 -146 26 -72 18 49 45 60
61 25 8 -19 2 -71 -28 -238 -52 -296 -49 -443 14 -673 22 -80 31 -59 42 100 6
70 16 151 24 178 8 28 18 67 21 87 4 21 14 45 23 53 14 14 18 15 30 2 13 -13
12 -21 -6 -63 -44 -106 -42 -341 4 -549 26 -116 78 -290 94 -314 7 -11 36 10
126 93 64 59 125 106 136 106 11 0 30 -16 47 -40 16 -24 39 -43 57 -48 26 -7
34 -18 60 -89 17 -44 36 -88 44 -96 7 -9 34 -19 59 -23 64 -9 79 -18 102 -64
11 -22 37 -51 58 -64 21 -13 50 -41 65 -63 15 -22 39 -45 53 -51 26 -12 29 -8
48 51 7 22 33 32 49 19 7 -6 21 -35 31 -64 28 -77 50 -103 112 -134 47 -23 63
-26 117 -21 62 5 165 44 200 74 11 11 17 31 17 59 0 24 5 46 10 49 6 4 43 -28
83 -69 54 -57 79 -76 99 -76 31 0 136 76 180 131 31 38 33 39 98 39 112 0 156
-19 220 -94 30 -36 58 -66 63 -66 10 0 9 43 -4 119 -19 121 1 151 100 151 44
0 72 5 79 13 6 7 12 43 13 79 2 61 4 66 20 57 10 -5 21 -14 24 -19 8 -13 35
-13 35 0 0 22 44 124 61 141 13 13 33 19 63 19 55 0 79 20 69 58 -3 15 -41
121 -85 235 -43 115 -90 254 -104 310 -14 55 -30 110 -36 121 -24 45 -38 129
-46 271 -15 320 -4 680 27 825 12 52 26 136 32 185 6 50 15 108 21 130 6 22
12 175 13 345 4 348 12 627 20 639 2 5 0 210 -6 457 -10 403 -11 525 -6 674 4
116 -64 575 -108 741 -14 52 -32 126 -40 164 -32 162 -89 304 -182 460 -150
251 -395 514 -591 635 -32 19 -75 48 -97 63 -59 41 -244 97 -320 97 -43 0 -66
5 -75 15 -7 8 -26 17 -44 20 -61 10 -543 39 -681 40 -77 1 -203 6 -280 10 -77
5 -142 8 -145 8 -3 -1 -70 -4 -150 -8 l-145 -7 -75 50 c-41 27 -90 53 -109 57
-19 4 -75 27 -125 51 -156 75 -201 76 -476 9 -173 -42 -282 -53 -373 -35 -62
11 -70 11 -107 -9 -65 -34 -92 -29 -139 28 -41 49 -109 91 -147 91 -11 0 -33
-14 -50 -31z"/>
</g>
</svg>
